<svg width="80" height="80" viewBox="0 0 80 80" fill="none" xmlns="http://www.w3.org/2000/svg">
<path d="M65.657 34.7129H14.3907C12.5914 34.7129 11.1276 33.2954 11.1276 31.5526V22.0845C11.1276 20.3417 12.5914 18.9236 14.3907 18.9236H65.6564C67.4551 18.9236 68.9182 20.3417 68.9182 22.0845V31.5533C68.9189 33.2954 67.4557 34.7129 65.657 34.7129ZM14.3907 21.3457C13.977 21.3457 13.6276 21.6842 13.6276 22.0845V31.5533C13.6276 31.9602 13.9701 32.2914 14.3907 32.2914H65.6564C66.0764 32.2914 66.4182 31.9602 66.4182 31.5533V22.0845C66.4182 21.6836 66.0689 21.3457 65.6564 21.3457H14.3907Z" fill="white"/>
<path d="M58.5074 67.1491H21.5374C18.0737 67.1491 15.2555 64.4193 15.2555 61.0628V33.5018C15.2555 32.8333 15.8155 32.2908 16.5055 32.2908C17.1955 32.2908 17.7555 32.8333 17.7555 33.5018V61.0628C17.7555 63.0835 19.4524 64.7269 21.5374 64.7269H58.5074C60.5918 64.7269 62.288 63.0835 62.288 61.0628V33.5018C62.288 32.8333 62.848 32.2908 63.538 32.2908C64.228 32.2908 64.788 32.8333 64.788 33.5018V61.0628C64.788 64.4193 61.9705 67.1491 58.5074 67.1491Z" fill="white"/>
<path d="M40.0231 67.1491C39.3331 67.1491 38.7731 66.6071 38.7731 65.938V33.5018C38.7731 32.8333 39.3331 32.2908 40.0231 32.2908C40.7131 32.2908 41.2731 32.8333 41.2731 33.5018V65.9374C41.2731 66.6071 40.7137 67.1491 40.0231 67.1491Z" fill="white"/>
<path d="M24.4218 21.3416C20.5093 19.2876 19.0493 14.533 21.1675 10.7417C23.2843 6.95225 28.1912 5.53711 32.1056 7.58746C38.0687 10.7169 41.2887 19.4475 41.4225 19.8175L39.0643 20.621C39.0343 20.5387 36.0262 12.3997 30.9162 9.71773C28.2131 8.30199 24.8268 9.27933 23.3662 11.8946C21.9043 14.5124 22.9118 17.7944 25.6137 19.2119L24.4218 21.3416Z" fill="white"/>
<path d="M55.6218 21.3416L54.4318 19.2113C55.7412 18.524 56.6956 17.385 57.1206 16.0038C57.545 14.622 57.3881 13.1626 56.6787 11.8952C55.9712 10.6266 54.7962 9.70258 53.3706 9.29142C51.9443 8.88026 50.4393 9.03164 49.1306 9.71771C44.0206 12.399 41.0125 20.538 40.9825 20.6204L38.6243 19.8168C38.7581 19.4469 41.9775 10.7162 47.9406 7.58744C49.8356 6.59315 52.0187 6.37394 54.0837 6.96979C56.1506 7.56503 57.8525 8.90508 58.8781 10.7417C59.905 12.5777 60.1318 14.6916 59.5168 16.6941C58.9012 18.696 57.5181 20.3461 55.6218 21.3416Z" fill="white"/>
<path d="M63.538 50.9317H16.5055C15.8155 50.9317 15.2555 50.3891 15.2555 49.7206C15.2555 49.0521 15.8155 48.5095 16.5055 48.5095H63.538C64.228 48.5095 64.788 49.0521 64.788 49.7206C64.788 50.3891 64.2287 50.9317 63.538 50.9317Z" fill="white"/>
</svg>
